<mxfile host="65bd71144e">
    <diagram id="fZaOFZF0WYeOhrvYBxzz" name="System View">
        <mxGraphModel dx="1023" dy="729" grid="1" gridSize="10" guides="1" tooltips="1" connect="1" arrows="1" fold="1" page="1" pageScale="1" pageWidth="1169" pageHeight="827" math="0" shadow="0">
            <root>
                <mxCell id="0"/>
                <mxCell id="1" parent="0"/>
                <mxCell id="MLglsYfPj2o7Z06wu8wH-1" value="PEP Funding Distribution Stream" style="shape=flexArrow;endArrow=classic;html=1;rounded=0;width=40;endSize=30.67;endWidth=50;exitX=0.5;exitY=0;exitDx=0;exitDy=0;verticalAlign=middle;horizontal=0;" parent="1" source="MLglsYfPj2o7Z06wu8wH-15" edge="1">
                    <mxGeometry x="-0.3333" width="50" height="50" relative="1" as="geometry">
                        <mxPoint x="320" y="200" as="sourcePoint"/>
                        <mxPoint x="600" y="200" as="targetPoint"/>
                        <Array as="points">
                            <mxPoint x="460" y="200"/>
                        </Array>
                        <mxPoint as="offset"/>
                    </mxGeometry>
                </mxCell>
                <mxCell id="MLglsYfPj2o7Z06wu8wH-2" value="member distribution flows" style="edgeStyle=orthogonalEdgeStyle;rounded=0;orthogonalLoop=1;jettySize=auto;html=1;entryX=0.5;entryY=0;entryDx=0;entryDy=0;exitX=1;exitY=0.5;exitDx=0;exitDy=0;strokeWidth=4;strokeColor=default;" parent="1" source="MLglsYfPj2o7Z06wu8wH-3" target="MLglsYfPj2o7Z06wu8wH-7" edge="1">
                    <mxGeometry relative="1" as="geometry"/>
                </mxCell>
                <mxCell id="MLglsYfPj2o7Z06wu8wH-3" value="Program Distribution Pool&lt;br&gt;For each program" style="ellipse;whiteSpace=wrap;html=1;" parent="1" vertex="1">
                    <mxGeometry x="600" y="120" width="160" height="160" as="geometry"/>
                </mxCell>
                <mxCell id="MLglsYfPj2o7Z06wu8wH-4" value="(instant) unlock tax" style="edgeStyle=orthogonalEdgeStyle;rounded=0;orthogonalLoop=1;jettySize=auto;html=1;entryX=1;entryY=0;entryDx=0;entryDy=0;exitX=0.5;exitY=1;exitDx=0;exitDy=0;" parent="1" source="MLglsYfPj2o7Z06wu8wH-7" target="MLglsYfPj2o7Z06wu8wH-9" edge="1">
                    <mxGeometry relative="1" as="geometry"/>
                </mxCell>
                <mxCell id="MLglsYfPj2o7Z06wu8wH-5" value="&lt;span style=&quot;font-size: 12px; text-align: left; text-wrap: wrap; background-color: rgb(251, 251, 251);&quot;&gt;updateReleaseFlowRate(..)&lt;/span&gt;&amp;nbsp;on staking changes" style="edgeStyle=orthogonalEdgeStyle;rounded=0;orthogonalLoop=1;jettySize=auto;html=1;entryX=1;entryY=0.5;entryDx=0;entryDy=0;dashed=1;exitX=1;exitY=1;exitDx=0;exitDy=0;" parent="1" source="MLglsYfPj2o7Z06wu8wH-7" target="MLglsYfPj2o7Z06wu8wH-13" edge="1">
                    <mxGeometry relative="1" as="geometry">
                        <Array as="points">
                            <mxPoint x="940" y="640"/>
                        </Array>
                    </mxGeometry>
                </mxCell>
                <mxCell id="MLglsYfPj2o7Z06wu8wH-6" value="transfer &amp;amp; unlock" style="edgeStyle=orthogonalEdgeStyle;rounded=0;orthogonalLoop=1;jettySize=auto;html=1;entryX=0.5;entryY=1;entryDx=0;entryDy=0;" parent="1" source="MLglsYfPj2o7Z06wu8wH-7" target="MLglsYfPj2o7Z06wu8wH-11" edge="1">
                    <mxGeometry relative="1" as="geometry"/>
                </mxCell>
                <mxCell id="MLglsYfPj2o7Z06wu8wH-7" value="Locker(s)" style="rhombus;whiteSpace=wrap;html=1;" parent="1" vertex="1">
                    <mxGeometry x="880" y="280" width="80" height="80" as="geometry"/>
                </mxCell>
                <mxCell id="MLglsYfPj2o7Z06wu8wH-8" value="staking rewards&lt;br&gt;for staked amount" style="edgeStyle=orthogonalEdgeStyle;rounded=0;orthogonalLoop=1;jettySize=auto;html=1;entryX=0;entryY=0.5;entryDx=0;entryDy=0;exitX=0.5;exitY=0;exitDx=0;exitDy=0;" parent="1" source="MLglsYfPj2o7Z06wu8wH-9" target="MLglsYfPj2o7Z06wu8wH-7" edge="1">
                    <mxGeometry relative="1" as="geometry">
                        <mxPoint x="680" y="350" as="sourcePoint"/>
                    </mxGeometry>
                </mxCell>
                <mxCell id="MLglsYfPj2o7Z06wu8wH-9" value="Tax Distribution Pool&lt;br&gt;(allow multiple distributors)" style="ellipse;whiteSpace=wrap;html=1;" parent="1" vertex="1">
                    <mxGeometry x="600" y="360" width="160" height="160" as="geometry"/>
                </mxCell>
                <mxCell id="MLglsYfPj2o7Z06wu8wH-10" value="(flowing) unlocking tax" style="edgeStyle=orthogonalEdgeStyle;rounded=0;orthogonalLoop=1;jettySize=auto;html=1;entryX=1;entryY=1;entryDx=0;entryDy=0;exitX=1;exitY=0.5;exitDx=0;exitDy=0;" parent="1" source="MLglsYfPj2o7Z06wu8wH-11" target="MLglsYfPj2o7Z06wu8wH-9" edge="1">
                    <mxGeometry x="0.2137" y="-7" relative="1" as="geometry">
                        <mxPoint x="1070" y="290" as="sourcePoint"/>
                        <mxPoint x="755.04" y="492.0799999999999" as="targetPoint"/>
                        <Array as="points">
                            <mxPoint x="1120" y="260"/>
                            <mxPoint x="1120" y="497"/>
                        </Array>
                        <mxPoint as="offset"/>
                    </mxGeometry>
                </mxCell>
                <mxCell id="MLglsYfPj2o7Z06wu8wH-11" value="Fontaine" style="shape=parallelogram;perimeter=parallelogramPerimeter;whiteSpace=wrap;html=1;fixedSize=1;" parent="1" vertex="1">
                    <mxGeometry x="1000" y="240" width="80" height="40" as="geometry"/>
                </mxCell>
                <mxCell id="MLglsYfPj2o7Z06wu8wH-12" value="Staking-subsidy Funding Rate: 5%" style="shape=flexArrow;endArrow=classic;html=1;rounded=0;entryX=0;entryY=0.5;entryDx=0;entryDy=0;exitX=0.5;exitY=1;exitDx=0;exitDy=0;" parent="1" source="MLglsYfPj2o7Z06wu8wH-15" target="MLglsYfPj2o7Z06wu8wH-13" edge="1">
                    <mxGeometry x="-0.3923" width="50" height="50" relative="1" as="geometry">
                        <mxPoint x="340" y="460" as="sourcePoint"/>
                        <mxPoint x="510" y="570" as="targetPoint"/>
                        <Array as="points">
                            <mxPoint x="460" y="640"/>
                        </Array>
                        <mxPoint as="offset"/>
                    </mxGeometry>
                </mxCell>
                <mxCell id="MLglsYfPj2o7Z06wu8wH-13" value="Staking-Subsidy Reserve&lt;br&gt;&lt;br&gt;&lt;div style=&quot;text-align: left;&quot;&gt;- setReleaseRate(..) onlyFundingManager&lt;/div&gt;&lt;div style=&quot;text-align: left;&quot;&gt;- updateReleaseFlowRate(...) onlyLocker&lt;/div&gt;" style="rounded=1;whiteSpace=wrap;html=1;" parent="1" vertex="1">
                    <mxGeometry x="560" y="600" width="240" height="80" as="geometry"/>
                </mxCell>
                <mxCell id="MLglsYfPj2o7Z06wu8wH-14" value="Staking-Subsidy Release Rate: 5%" style="shape=flexArrow;endArrow=classic;html=1;rounded=0;entryX=0.5;entryY=1;entryDx=0;entryDy=0;exitX=0.5;exitY=0;exitDx=0;exitDy=0;width=6;endSize=6.67;" parent="1" source="MLglsYfPj2o7Z06wu8wH-13" target="MLglsYfPj2o7Z06wu8wH-9" edge="1">
                    <mxGeometry width="50" height="50" relative="1" as="geometry">
                        <mxPoint x="660" y="590" as="sourcePoint"/>
                        <mxPoint x="710" y="540" as="targetPoint"/>
                        <mxPoint as="offset"/>
                    </mxGeometry>
                </mxCell>
                <mxCell id="MLglsYfPj2o7Z06wu8wH-15" value="FluidProgramsManager&lt;br&gt;&lt;br&gt;- registerProgram(..)&lt;br&gt;- start/stopFunding(...)&lt;div&gt;- setSubsidyFundingRate(...)&amp;nbsp;&lt;br&gt;&lt;div&gt;Staking-Subsidy Reserve&lt;/div&gt;&lt;/div&gt;" style="rounded=1;whiteSpace=wrap;html=1;" parent="1" vertex="1">
                    <mxGeometry x="360" y="360" width="200" height="120" as="geometry"/>
                </mxCell>
                <mxCell id="MLglsYfPj2o7Z06wu8wH-16" value="instant fund" style="shape=flexArrow;endArrow=classic;html=1;rounded=0;entryX=0;entryY=0.25;entryDx=0;entryDy=0;exitX=1;exitY=0.5;exitDx=0;exitDy=0;exitPerimeter=0;" parent="1" source="MLglsYfPj2o7Z06wu8wH-19" target="MLglsYfPj2o7Z06wu8wH-15" edge="1">
                    <mxGeometry width="50" height="50" relative="1" as="geometry">
                        <mxPoint x="170" y="260" as="sourcePoint"/>
                        <mxPoint x="250" y="420" as="targetPoint"/>
                        <Array as="points">
                            <mxPoint x="240" y="240"/>
                            <mxPoint x="240" y="390"/>
                        </Array>
                        <mxPoint as="offset"/>
                    </mxGeometry>
                </mxCell>
                <mxCell id="MLglsYfPj2o7Z06wu8wH-17" style="edgeStyle=orthogonalEdgeStyle;rounded=0;orthogonalLoop=1;jettySize=auto;html=1;entryX=0;entryY=0.5;entryDx=0;entryDy=0;" parent="1" source="MLglsYfPj2o7Z06wu8wH-18" target="MLglsYfPj2o7Z06wu8wH-15" edge="1">
                    <mxGeometry relative="1" as="geometry"/>
                </mxCell>
                <mxCell id="MLglsYfPj2o7Z06wu8wH-18" value="DAO Multi-sig" style="shape=umlActor;verticalLabelPosition=bottom;verticalAlign=top;html=1;outlineConnect=0;" parent="1" vertex="1">
                    <mxGeometry x="105" y="390" width="30" height="60" as="geometry"/>
                </mxCell>
                <mxCell id="MLglsYfPj2o7Z06wu8wH-19" value="DAO Treasury" style="shape=cylinder3;whiteSpace=wrap;html=1;boundedLbl=1;backgroundOutline=1;size=15;fontStyle=0" parent="1" vertex="1">
                    <mxGeometry x="80" y="200" width="70" height="80" as="geometry"/>
                </mxCell>
                <mxCell id="MLglsYfPj2o7Z06wu8wH-20" value="Vote &amp;amp; Authorize" style="edgeStyle=orthogonalEdgeStyle;rounded=0;orthogonalLoop=1;jettySize=auto;html=1;dashed=1;" parent="1" source="MLglsYfPj2o7Z06wu8wH-21" edge="1">
                    <mxGeometry x="-0.0909" relative="1" as="geometry">
                        <mxPoint x="120" y="480" as="targetPoint"/>
                        <mxPoint as="offset"/>
                    </mxGeometry>
                </mxCell>
                <mxCell id="MLglsYfPj2o7Z06wu8wH-21" value="DAO" style="shape=xor;whiteSpace=wrap;html=1;" parent="1" vertex="1">
                    <mxGeometry x="80" y="560" width="80" height="120" as="geometry"/>
                </mxCell>
                <mxCell id="2" value="Foundation Treasury" style="shape=cylinder3;whiteSpace=wrap;html=1;boundedLbl=1;backgroundOutline=1;size=15;" vertex="1" parent="1">
                    <mxGeometry x="80" y="20" width="70" height="90" as="geometry"/>
                </mxCell>
                <mxCell id="3" value="cfa flow" style="shape=flexArrow;endArrow=classic;html=1;rounded=0;entryX=0.5;entryY=0;entryDx=0;entryDy=0;exitX=0.5;exitY=1;exitDx=0;exitDy=0;exitPerimeter=0;entryPerimeter=0;" edge="1" parent="1">
                    <mxGeometry width="50" height="50" relative="1" as="geometry">
                        <mxPoint x="115" y="109" as="sourcePoint"/>
                        <mxPoint x="115" y="199" as="targetPoint"/>
                    </mxGeometry>
                </mxCell>
            </root>
        </mxGraphModel>
    </diagram>
</mxfile>